<?xml version="1.0" encoding="UTF-8"?>
<svg version="1.1" xmlns="http://www.w3.org/2000/svg" width="500" height="500">
<path d="M0 0 C165 0 330 0 500 0 C500 165 500 330 500 500 C335 500 170 500 0 500 C0 335 0 170 0 0 Z " fill="#FF4444" transform="translate(0,0)"/>
<path d="M0 0 C9.24 0 18.48 0 28 0 C28 78.54 28 157.08 28 238 C18.76 238 9.52 238 0 238 C0 159.46 0 80.92 0 0 Z " fill="#FFFEFE" transform="translate(236,123)"/>
<path d="M0 0 C2 3 2 3 3.0078125 4.8671875 C6.91109848 11.88218398 11.99201837 14.49600919 19 18 C12.73 18 6.46 18 0 18 C0 12.06 0 6.12 0 0 Z " fill="#FFF8F8" transform="translate(0,482)"/>
<path d="M0 0 C0.33 0 0.66 0 1 0 C1 5.94 1 11.88 1 18 C-4.94 18 -10.88 18 -17 18 C-14 16 -14 16 -11.9140625 14.84375 C-5.43959631 11.04303947 -2.72482787 6.9284568 0 0 Z " fill="#FFF9F9" transform="translate(499,482)"/>
<path d="M0 0 C6.27 0 12.54 0 19 0 C17.02 0.99 17.02 0.99 15 2 C8.20313646 5.78341037 3.61033489 9.38652323 1 17 C0.67 17 0.34 17 0 17 C0 11.39 0 5.78 0 0 Z " fill="#FFF9F9" transform="translate(0,0)"/>
<path d="M0 0 C5.94 0 11.88 0 18 0 C18 5.61 18 11.22 18 17 C15 13 15 13 13.3125 10.0625 C10.39507878 6.19888812 7.1502452 4.35208968 3 2 C2.01 1.34 1.02 0.68 0 0 Z " fill="#FFFAFA" transform="translate(482,0)"/>
</svg>
